<svg width="20" height="20" viewBox="0 0 20 20" fill="none" xmlns="http://www.w3.org/2000/svg">
<path d="M3.83331 9.16667V8.66667H3.33331H2.12663L9.77548 1.71331L9.77564 1.71316C9.83702 1.65732 9.91701 1.62637 9.99998 1.62637C10.083 1.62637 10.1629 1.65732 10.2243 1.71316L10.2245 1.71331L17.8733 8.66667H16.6666H16.1666V9.16667V16.6667C16.1666 16.7551 16.1315 16.8399 16.069 16.9024L16.4226 17.2559L16.069 16.9024C16.0065 16.9649 15.9217 17 15.8333 17H4.16665C4.07824 17 3.99346 16.9649 3.93094 16.9024L3.57739 17.2559L3.93094 16.9024C3.86843 16.8399 3.83331 16.7551 3.83331 16.6667V9.16667Z" fill="#30F769" stroke="#30F769"/>
</svg>
